<svg xmlns="http://www.w3.org/2000/svg" width="118.547" height="42.338" viewBox="0 0 118.547 42.338">
  <defs>
    <style>
      .cls-1, .cls-2 {
        fill: #052932;
      }

      .cls-2 {
        fill-rule: evenodd;
      }
    </style>
  </defs>
  <g id="Group_12" data-name="Group 12" transform="translate(-232.813 -60.451)">
    <g id="Component_6_5" data-name="Component 6 – 5" transform="translate(232.813 60.451)">
      <g id="Group_8" data-name="Group 8" transform="translate(0 22.307)">
        <path id="Path_1" data-name="Path 1" class="cls-1" d="M170.954,446.739v-19.7h4.537q4.98,0,4.98,5.783a7.288,7.288,0,0,1-.54,2.961,4.184,4.184,0,0,1-1.9,1.964l3.043,8.992h-2.988l-2.628-8.411h-1.688v8.411Zm2.822-17.043v6.142h1.6a2.841,2.841,0,0,0,1.19-.207,1.618,1.618,0,0,0,.692-.595,2.707,2.707,0,0,0,.3-.955,10.451,10.451,0,0,0,0-2.628,2.635,2.635,0,0,0-.332-.982,2.246,2.246,0,0,0-1.992-.775Z" transform="translate(-170.954 -426.874)"/>
        <path id="Path_2" data-name="Path 2" class="cls-1" d="M352.476,446.739l4.4-19.7h2.352l4.4,19.7H360.8l-.83-4.233h-3.846l-.83,4.233Zm6.972-6.889-1.383-7.138h-.055l-1.383,7.138Z" transform="translate(-337.812 -426.874)"/>
        <path id="Path_3" data-name="Path 3" class="cls-1" d="M560.028,446.739v-19.7h2.822v19.7Z" transform="translate(-530.492 -426.874)"/>
        <path id="Path_4" data-name="Path 4" class="cls-1" d="M678.874,446.739v-19.7h2.711l4.261,11.87h.055V427.04h2.822v19.7h-2.656L681.751,434.9H681.7v11.842Z" transform="translate(-640.466 -426.874)"/>
        <path id="Path_5" data-name="Path 5" class="cls-1" d="M872.143,446.739v-8.328L868.27,427.04h2.988l2.269,7.83h.055l2.269-7.83h2.988l-3.874,11.371v8.328Z" transform="translate(-815.563 -426.874)"/>
        <path id="Path_6" data-name="Path 6" class="cls-1" d="M1067.94,446.739v-19.7h4.178a4.852,4.852,0,0,1,3.694,1.328,5.258,5.258,0,0,1,1.259,3.763v9.213a5.493,5.493,0,0,1-1.342,4.081,5.29,5.29,0,0,1-3.86,1.314Zm2.822-17.043v14.387h1.3a2.093,2.093,0,0,0,1.688-.595,2.88,2.88,0,0,0,.5-1.868v-9.49a2.982,2.982,0,0,0-.47-1.8,2.009,2.009,0,0,0-1.715-.636Z" transform="translate(-1000.083 -426.874)"/>
        <path id="Path_7" data-name="Path 7" class="cls-1" d="M1245.354,446.739l4.4-19.7h2.352l4.4,19.7h-2.822l-.83-4.233h-3.846l-.83,4.233Zm6.972-6.889-1.383-7.138h-.055l-1.383,7.138Z" transform="translate(-1164.173 -426.874)"/>
        <path id="Path_8" data-name="Path 8" class="cls-1" d="M1421.507,446.739v-8.328l-3.874-11.371h2.988l2.269,7.83h.055l2.269-7.83h2.988l-3.873,11.371v8.328Z" transform="translate(-1324.347 -426.874)"/>
        <path id="Path_9" data-name="Path 9" class="cls-1" d="M1620.139,430.823h-2.822v-.636a3.014,3.014,0,0,0-.457-1.674,1.689,1.689,0,0,0-1.536-.705,1.776,1.776,0,0,0-.941.221,1.855,1.855,0,0,0-.581.553,2.335,2.335,0,0,0-.3.816,5.334,5.334,0,0,0-.083.955,9.306,9.306,0,0,0,.042.968,1.833,1.833,0,0,0,.207.692,1.533,1.533,0,0,0,.484.526,4.405,4.405,0,0,0,.872.443l2.158.858a5.368,5.368,0,0,1,1.522.844,3.652,3.652,0,0,1,.913,1.121,5.255,5.255,0,0,1,.415,1.508,14.981,14.981,0,0,1,.111,1.923,10.137,10.137,0,0,1-.249,2.31,4.868,4.868,0,0,1-.8,1.812,3.982,3.982,0,0,1-1.522,1.217,5.375,5.375,0,0,1-2.3.443,5.028,5.028,0,0,1-1.909-.36,4.528,4.528,0,0,1-1.522-1,4.837,4.837,0,0,1-1.01-1.48,4.5,4.5,0,0,1-.374-1.84v-1.051h2.822v.885a2.3,2.3,0,0,0,.457,1.4,1.778,1.778,0,0,0,1.536.622,2.478,2.478,0,0,0,1.12-.208,1.49,1.49,0,0,0,.623-.595,2.187,2.187,0,0,0,.263-.927q.041-.539.042-1.2a11.966,11.966,0,0,0-.055-1.273,2.2,2.2,0,0,0-.221-.8,1.563,1.563,0,0,0-.512-.5,6.688,6.688,0,0,0-.844-.415l-2.02-.83a4.473,4.473,0,0,1-2.449-1.978,6.8,6.8,0,0,1-.623-3.085,7.143,7.143,0,0,1,.3-2.1,4.78,4.78,0,0,1,.913-1.715,4.187,4.187,0,0,1,1.48-1.148,4.94,4.94,0,0,1,2.144-.429,4.684,4.684,0,0,1,1.923.387,4.964,4.964,0,0,1,1.508,1.024,4.276,4.276,0,0,1,1.273,3.043Z" transform="translate(-1501.592 -424.985)"/>
      </g>
      <path id="Path_2-2" data-name="Path 2" class="cls-2" d="M401.27,120.549a29.294,29.294,0,0,0,4.866-1.083c11.921-10.657-1.4,5.86,11.7-5.792,5.586-4.971,3.589-2.875,7.977,1.21,1.551,1.447,3.23-2.364,1.634-5.41-.047-.088,3.282-4.419,3.33-4.454-.04-.331,1.294,7.151,1.224,1.97,0-.037.962-3.641,1.572-3.684,1.321-.092-.557-1.377,1.712-2.92a8.274,8.274,0,0,0,1.433-2.617c.023.037,3.471,3.4,3.994,4.088.569.748,3.593,1.512,3.481,4.139-.006.145,1.114,2.768,1.042,4.164-.06,1.2,2.986,2.619,4.1,5.623,1.43,3.849-.386-3.67,1.077-1.246,1.19,1.976,2.03,1.261,4.026,4.468a12.887,12.887,0,0,0,1.117,1.545h.289a5.375,5.375,0,0,0-.325-1.026c-.331-.852-.688-4.013-1.121-4.3-.745-.5-3.613-2.523-3.6-3.177.047-3.134,3.75,2.235,2.772.023-1.875-4.24-1.053-1.485-2.1-2.108.475-.652.153-1.073.286-1.469.717-.26.84.116-.822-1.6-1.766-1.827.534-2.664-.428-4.967-.411-.983,1.095-.889,2.111.008a64.433,64.433,0,0,0,6.871,3.424,14.4,14.4,0,0,0,7.073,5.069,21.018,21.018,0,0,1-5.109-4.231,1.792,1.792,0,0,0,.2.063c2.944.525,2.213,1.111,3.964,2.176,1.124.166,3.466,3.208,6.665,4.088,1.693.468,3.441,3.77,5.265,5.186,3.458,2.679,1.1,1.306,4.879,2.5.372.118.687.233.965.343h1.327c-2.046-.762-3.325-2.668-4.785-3.218-2.877-1.079-4.34-3.41-6.2-5.7-1.965-2.415-4.753-2.153-5.773-3.5-.7-.924-4.8-3.292-5.918-3.692-.028-.029-.1-.045-.147-.08a2.41,2.41,0,0,0-.339-.18c-.257-.159-.333,0-.61,0a1.292,1.292,0,0,1-.466-.274c-.031-.018-.167-.08-.185-.1a2.5,2.5,0,0,0-.849-.537,3.094,3.094,0,0,1-.538-.255c-.3-.106-.388-.349-.815-.429a3.07,3.07,0,0,1-1.056-.374c0-.039-3.552-1.12-3.745-1.175a1.567,1.567,0,0,1-.221-.1c-.745-.909-1.952-1.1-2.889-1.667-.432-.262-2.141.729-2.744,1.154-.317.225-.486.221-.693.411-.127.116-1.034.552-1.181.413-.128-.122-.044-.08-.172-.11-.53-.127-.415.2-.672.241-.457.067-.263.141-.495.229-.384.149-.146.253-.55.245-.31-.507-1.187-.648-1.6-1.316-.091-.149-.859-.895-1.1-.9-.31,0-1.192-.993-1.687-1.171,0,0-.581-.443-.612-.472a3.476,3.476,0,0,1-.555-.327,3.747,3.747,0,0,0-1.152-.533,2.1,2.1,0,0,0-.564-.27c-.652-.174-.721-.582-1.191-.358a6.531,6.531,0,0,0-1.752.979,2.086,2.086,0,0,0-.677.155c-.271.284-.471.617-.774.611-.543-.01-.37.119-.986.468a10.808,10.808,0,0,1-1.194.776c-.253.116-.85.727-1.1.7-.152.1-.4-.127-.7.372-.054.09-.389.08-.7.5a3.525,3.525,0,0,0-.419.286c-.538.6-.248.231-.491.38a8.261,8.261,0,0,1-1.068.6c-.722.3-.691.529-1.039.752a4.188,4.188,0,0,1-1.081.693c-.318.123-1.363,1.016-1.708,1.083s-1.554,1.308-2.033,1.534a1.5,1.5,0,0,0-.186.147c-.706.092-.945.617-1.55.932-.276.143-.337.329-.678.431-.484.141-1.186.919-1.387.993-.408.153-1.069.825-1.445.787-.006,0-1.128.684-1.159.734s-.071.063-.069.108c-.413.351-.146-.266-.937.754-.507.652-1.82,1.089-2.656,2.1-.186.225-.265-.317-1.185,1.175-.817,1.322-1.556,1.152-2.587,2.047-.771.668-1.289.38-2.451,1.389a16.585,16.585,0,0,1-2.554,1.792c-.342.2-.619.629-.962.752Z" transform="translate(-381.196 -96.451)"/>
    </g>
  </g>
</svg>
