<svg xmlns="http://www.w3.org/2000/svg" width="30.911" height="28.331" viewBox="0 0 30.911 28.331">
  <defs>
    <style>
      .cls-1 {
        fill: #0a3641;
      }
    </style>
  </defs>
  <path id="_001-shopping-cart" data-name="001-shopping-cart" class="cls-1" d="M29.641,26.5H5.472l-.359-4a1.269,1.269,0,0,0-1.264-1.156H1.269a1.269,1.269,0,0,0,0,2.539H2.688c.775,8.637-1.228-13.687,1.46,16.266a4.884,4.884,0,0,0,1.828,3.309,3.848,3.848,0,1,0,6.649,1.058h6.948a3.849,3.849,0,1,0,3.619-2.539H9.016a2.357,2.357,0,0,1-2.167-1.429L27.136,39.35a1.27,1.27,0,0,0,1.157-.959l2.579-10.317A1.27,1.27,0,0,0,29.641,26.5ZM9.007,47.13a1.31,1.31,0,1,1,1.31-1.31A1.311,1.311,0,0,1,9.007,47.13Zm14.186,0a1.31,1.31,0,1,1,1.31-1.31A1.311,1.311,0,0,1,23.193,47.13Zm2.863-10.26L6.507,38.019,5.7,29.035H28.015Z" transform="translate(0 -21.338)"/>
</svg>
