<svg xmlns="http://www.w3.org/2000/svg" width="43.451" height="57.792" viewBox="0 0 43.451 57.792">
  <g id="_41-User" data-name="41-User" transform="translate(120.25 -2.737)">
    <path id="Path_1" data-name="Path 1" d="M33.028,26.461a14.317,14.317,0,1,0-15.122,0A21.476,21.476,0,0,0,4,46.541v8.948a1.79,1.79,0,0,0,1.79,1.79H45.161a1.79,1.79,0,0,0,1.79-1.79V46.541a21.476,21.476,0,0,0-13.923-20.08ZM14.738,14.328A10.738,10.738,0,1,1,25.476,25.065,10.738,10.738,0,0,1,14.738,14.328ZM43.372,53.7H7.579V46.541a17.9,17.9,0,0,1,35.793,0Z" transform="translate(-124 3)" fill="#0a3641" stroke="#0a3641" stroke-width="0.5"/>
  </g>
</svg>
