<svg xmlns="http://www.w3.org/2000/svg" width="33.899" height="27.584" viewBox="0 0 33.899 27.584">
  <path id="Icon_ionic-logo-twitter" data-name="Icon ionic-logo-twitter" d="M35.312,7.768a14.061,14.061,0,0,1-3.994,1.1,6.979,6.979,0,0,0,3.06-3.85A13.819,13.819,0,0,1,29.96,6.705a6.953,6.953,0,0,0-12.032,4.755,6.809,6.809,0,0,0,.18,1.588A19.71,19.71,0,0,1,3.769,5.771a6.968,6.968,0,0,0,2.162,9.3A6.793,6.793,0,0,1,2.771,14.2v.086a6.961,6.961,0,0,0,5.582,6.824,7,7,0,0,1-1.832.244,6.561,6.561,0,0,1-1.307-.129,6.966,6.966,0,0,0,6.5,4.834,13.944,13.944,0,0,1-8.642,2.981,14.1,14.1,0,0,1-1.659-.1,19.44,19.44,0,0,0,10.646,3.146c12.808,0,19.8-10.61,19.8-19.812,0-.3-.007-.6-.022-.9A14.158,14.158,0,0,0,35.312,7.768Z" transform="translate(-1.413 -4.5)" fill="#fff"/>
</svg>
