<svg xmlns="http://www.w3.org/2000/svg" width="61.527" height="61.635" viewBox="0 0 61.527 61.635">
  <path id="Icon_feather-phone-call" data-name="Icon feather-phone-call" d="M38.016,12.274A13.467,13.467,0,0,1,48.656,22.913M38.016,1.5A24.241,24.241,0,0,1,59.43,22.886M56.736,44.38v8.08a5.387,5.387,0,0,1-5.872,5.387A53.3,53.3,0,0,1,27.62,49.579,52.523,52.523,0,0,1,11.459,33.418,53.3,53.3,0,0,1,3.19,10.065,5.387,5.387,0,0,1,8.55,4.193h8.08a5.387,5.387,0,0,1,5.387,4.633A34.584,34.584,0,0,0,23.9,16.395a5.387,5.387,0,0,1-1.212,5.683L19.27,25.5A43.1,43.1,0,0,0,35.431,41.66l3.421-3.421a5.387,5.387,0,0,1,5.683-1.212A34.584,34.584,0,0,0,52.1,38.913,5.387,5.387,0,0,1,56.736,44.38Z" transform="translate(-0.666 1.261)" fill="none" stroke="#0a3641" stroke-linecap="round" stroke-linejoin="round" stroke-width="5"/>
</svg>
